<?xml version="1.0" standalone="no"?>
<!DOCTYPE svg PUBLIC "-//W3C//DTD SVG 20010904//EN"
 "http://www.w3.org/TR/2001/REC-SVG-20010904/DTD/svg10.dtd">
<svg version="1.0" xmlns="http://www.w3.org/2000/svg"
 width="1920.000000pt" height="1920.000000pt" viewBox="0 0 1920.000000 1920.000000"
 preserveAspectRatio="xMidYMid meet">
<metadata>
Created by potrace 1.14, written by Peter Selinger 2001-2017
</metadata>
<g transform="translate(0.000000,1920.000000) scale(0.100000,-0.100000)"
fill="#000000" stroke="none">
<path d="M8877 16393 c-54 -16 -118 -52 -232 -131 -266 -184 -534 -464 -743
-778 -81 -121 -202 -328 -202 -345 0 -5 -6 -9 -12 -10 -45 -4 -461 -3 -467 1
-4 3 -46 64 -93 136 -73 110 -193 278 -251 350 -101 127 -217 255 -295 327
-79 74 -101 93 -167 142 -207 154 -405 211 -589 171 -200 -45 -364 -190 -380
-337 -7 -59 -18 -365 -19 -509 -1 -205 15 -360 56 -525 17 -69 66 -194 109
-279 l50 -100 -33 -100 c-18 -56 -36 -108 -40 -116 -4 -8 -30 -60 -57 -115
-56 -113 -108 -201 -196 -329 -34 -49 -68 -98 -76 -111 -30 -44 -218 -274
-271 -330 -21 -22 -54 -58 -74 -79 -32 -36 -132 -197 -286 -464 -30 -51 -61
-105 -70 -120 -43 -72 -219 -375 -219 -377 0 -2 -17 -32 -38 -66 -22 -35 -51
-86 -67 -114 -15 -27 -83 -148 -151 -267 -69 -120 -135 -237 -148 -260 -12
-24 -35 -65 -51 -93 -16 -27 -36 -63 -45 -80 -9 -16 -44 -80 -78 -141 -34 -61
-62 -116 -62 -122 0 -6 -4 -12 -8 -14 -7 -3 -38 -56 -127 -223 -21 -38 -63
-117 -95 -175 -31 -58 -79 -145 -105 -195 -26 -49 -64 -121 -85 -160 -271
-507 -592 -1168 -739 -1520 -23 -55 -46 -109 -51 -120 -5 -11 -18 -42 -28 -70
-10 -27 -23 -59 -27 -70 -5 -11 -9 -22 -9 -25 -1 -6 -24 -65 -36 -95 -5 -11
-20 -56 -34 -100 -85 -275 -96 -348 -91 -610 3 -115 7 -230 9 -255 5 -49 17
-166 21 -190 1 -8 5 -37 9 -65 4 -27 11 -70 16 -95 6 -25 12 -56 14 -70 20
-119 111 -398 160 -490 101 -188 159 -272 266 -381 86 -87 187 -169 208 -169
7 0 12 -4 12 -8 0 -9 139 -80 215 -110 95 -37 271 -76 395 -87 120 -11 415 -4
492 10 13 3 66 8 119 11 l97 6 7 -33 c34 -155 194 -348 314 -378 98 -26 325
-34 436 -18 226 35 419 139 611 331 104 104 167 181 349 426 72 96 137 184
146 195 266 326 447 504 714 704 50 37 104 76 120 87 17 10 32 21 35 24 3 3
13 10 22 15 26 15 283 193 388 268 593 423 1126 851 1600 1286 117 108 475
462 534 530 l39 44 -7 -105 c-3 -59 -8 -123 -11 -145 -2 -21 -10 -82 -16 -137
-6 -54 -13 -108 -15 -120 -2 -11 -6 -43 -9 -71 -3 -27 -7 -57 -10 -65 -2 -8
-7 -31 -10 -50 -3 -19 -8 -48 -11 -65 -3 -16 -12 -61 -20 -100 -8 -38 -17 -81
-20 -95 -17 -90 -92 -349 -138 -480 -203 -582 -471 -1022 -941 -1545 -89 -99
-336 -348 -826 -830 -255 -252 -325 -324 -454 -469 -69 -76 -265 -321 -295
-366 -8 -13 -24 -35 -36 -49 -94 -120 -284 -452 -369 -646 -149 -339 -249
-712 -291 -1080 -3 -33 -8 -68 -10 -78 -9 -50 -18 -253 -19 -412 0 -176 1
-181 26 -230 37 -69 87 -118 156 -152 l58 -28 4980 0 4980 0 67 33 c88 43 148
115 170 202 27 108 29 1571 3 2315 -7 221 -16 434 -20 510 -3 44 -7 125 -10
180 -5 95 -11 187 -20 320 -3 33 -7 101 -10 150 -3 50 -7 113 -10 140 -5 51
-9 99 -20 235 -3 41 -8 91 -10 110 -3 19 -7 71 -10 115 -4 44 -8 91 -10 105
-5 31 -12 95 -25 230 -11 103 -17 161 -25 210 -2 14 -6 50 -9 80 -3 30 -8 72
-11 93 -3 20 -7 53 -10 73 -8 61 -14 104 -30 219 -9 61 -18 126 -21 145 -2 19
-7 48 -10 65 -4 16 -8 43 -10 60 -1 16 -5 44 -8 60 -3 17 -8 48 -12 70 -6 38
-68 385 -80 450 -48 254 -121 593 -160 750 -14 55 -27 107 -29 115 -2 9 -22
87 -45 175 -301 1151 -723 2131 -1264 2935 -302 449 -709 916 -1072 1230 -503
435 -1034 768 -1624 1019 -41 18 -84 36 -95 41 -88 40 -379 147 -505 185 -3 1
-12 4 -20 8 -72 29 -446 131 -645 176 -77 18 -158 36 -180 41 -22 6 -53 12
-70 15 -16 2 -55 9 -85 15 -84 17 -143 28 -247 45 -18 3 -46 7 -62 10 -16 3
-49 7 -72 10 -24 3 -55 7 -69 10 -14 3 -43 8 -65 10 -22 3 -65 8 -95 13 l-55
7 -6 80 c-8 100 -17 175 -29 245 -5 30 -12 75 -15 100 -4 24 -8 47 -10 50 -2
3 -6 23 -9 44 -17 109 -76 294 -126 396 -34 69 -53 105 -59 110 -3 3 -18 23
-33 45 -115 170 -364 277 -531 228z"/>
</g>
</svg>
